<svg xmlns="http://www.w3.org/2000/svg" xmlns:xlink="http://www.w3.org/1999/xlink" width="500" zoomAndPan="magnify" viewBox="0 0 375 374.999991" height="500" preserveAspectRatio="xMidYMid meet" version="1.0"><defs><clipPath id="c926f219c4"><path d="M 223 122 L 368.402344 122 L 368.402344 244 L 223 244 Z M 223 122 " clip-rule="nonzero"/></clipPath><clipPath id="e4bd846646"><path d="M 167 42.007812 L 289 42.007812 L 289 163 L 167 163 Z M 167 42.007812 " clip-rule="nonzero"/></clipPath><clipPath id="5b4df07eae"><path d="M 87 42.007812 L 209 42.007812 L 209 163 L 87 163 Z M 87 42.007812 " clip-rule="nonzero"/></clipPath></defs><g clip-path="url(#c926f219c4)"><path fill="#ffffff" d="M 326.230469 182.804688 L 308.105469 164.640625 L 289.976562 182.804688 L 308.105469 200.972656 Z M 308.105469 122.378906 C 309.164062 122.378906 310.226562 122.785156 311.035156 123.597656 L 367.1875 179.867188 C 367.964844 180.648438 368.398438 181.707031 368.398438 182.804688 C 368.398438 183.910156 367.964844 184.964844 367.1875 185.746094 L 311.035156 242.019531 C 309.414062 243.640625 306.789062 243.640625 305.171875 242.019531 L 268.03125 204.800781 L 267.601562 205.230469 C 265.980469 206.851562 263.355469 206.851562 261.738281 205.230469 C 260.117188 203.605469 260.117188 200.976562 261.738281 199.351562 L 305.171875 155.820312 C 306.789062 154.199219 309.414062 154.199219 311.035156 155.820312 L 335.03125 179.867188 C 335.808594 180.648438 336.246094 181.707031 336.246094 182.804688 C 336.246094 183.910156 335.808594 184.964844 335.03125 185.746094 L 311.035156 209.792969 C 309.414062 211.414062 306.789062 211.417969 305.171875 209.792969 L 284.109375 188.6875 L 273.898438 198.917969 L 308.105469 233.199219 L 358.386719 182.804688 L 308.105469 132.414062 L 230.90625 209.78125 C 229.285156 211.402344 226.660156 211.402344 225.039062 209.78125 C 223.417969 208.15625 223.417969 205.523438 225.039062 203.902344 L 305.171875 123.597656 C 305.980469 122.785156 307.042969 122.378906 308.105469 122.378906 " fill-opacity="1" fill-rule="nonzero"/></g><g clip-path="url(#e4bd846646)"><path fill="#ffffff" d="M 187.910156 114.4375 C 188.972656 114.4375 190.035156 114.84375 190.84375 115.65625 L 230.910156 155.8125 C 232.53125 157.433594 232.53125 160.066406 230.910156 161.6875 C 229.289062 163.3125 226.664062 163.3125 225.042969 161.6875 L 184.976562 121.535156 C 183.355469 119.914062 183.355469 117.28125 184.976562 115.65625 C 185.789062 114.84375 186.847656 114.4375 187.910156 114.4375 Z M 246.101562 102.480469 L 227.976562 84.3125 L 209.847656 102.480469 L 227.976562 120.648438 Z M 227.976562 74.273438 C 229.078125 74.273438 230.132812 74.710938 230.910156 75.492188 L 254.902344 99.539062 C 256.523438 101.164062 256.523438 103.796875 254.902344 105.421875 L 230.910156 129.464844 C 229.355469 131.023438 226.597656 131.023438 225.042969 129.464844 L 201.046875 105.421875 C 199.429688 103.796875 199.429688 101.164062 201.046875 99.539062 L 225.042969 75.492188 C 225.820312 74.710938 226.875 74.273438 227.976562 74.273438 Z M 227.976562 42.050781 C 229.078125 42.050781 230.132812 42.488281 230.910156 43.265625 L 287.054688 99.539062 C 288.675781 101.164062 288.675781 103.796875 287.058594 105.421875 L 247.007812 145.566406 C 245.390625 147.1875 242.761719 147.1875 241.140625 145.566406 C 239.519531 143.941406 239.519531 141.308594 241.140625 139.683594 L 278.257812 102.480469 L 227.976562 52.085938 L 174.757812 105.421875 C 173.140625 107.042969 170.515625 107.042969 168.894531 105.421875 C 167.273438 103.796875 167.273438 101.164062 168.894531 99.539062 L 225.042969 43.265625 C 225.820312 42.488281 226.875 42.050781 227.976562 42.050781 " fill-opacity="1" fill-rule="nonzero"/></g><path fill="#ffffff" d="M 187.894531 194.742188 C 188.957031 194.742188 190.015625 195.148438 190.828125 195.957031 L 230.914062 236.132812 C 232.535156 237.757812 232.535156 240.390625 230.914062 242.015625 C 229.292969 243.636719 226.667969 243.636719 225.046875 242.011719 L 184.960938 201.835938 C 183.339844 200.214844 183.339844 197.582031 184.960938 195.957031 C 185.769531 195.148438 186.832031 194.742188 187.894531 194.742188 Z M 284.132812 178.644531 C 285.191406 178.644531 286.253906 179.050781 287.066406 179.863281 C 288.6875 181.484375 288.6875 184.121094 287.066406 185.742188 L 246.976562 225.917969 C 245.355469 227.539062 242.730469 227.539062 241.109375 225.917969 C 239.492188 224.292969 239.492188 221.660156 241.109375 220.035156 L 281.199219 179.863281 C 282.007812 179.050781 283.070312 178.644531 284.132812 178.644531 Z M 246.109375 182.800781 L 227.980469 164.636719 L 209.851562 182.800781 L 227.980469 200.96875 Z M 227.980469 154.597656 C 229.042969 154.597656 230.101562 155.003906 230.914062 155.816406 L 254.910156 179.859375 C 255.6875 180.640625 256.125 181.699219 256.125 182.800781 C 256.125 183.90625 255.6875 184.964844 254.910156 185.742188 L 230.914062 209.789062 C 229.292969 211.410156 226.667969 211.414062 225.046875 209.789062 L 201.054688 185.742188 C 199.433594 184.121094 199.433594 181.484375 201.054688 179.863281 L 225.046875 155.816406 C 225.859375 155.003906 226.917969 154.597656 227.980469 154.597656 Z M 211.921875 138.472656 C 212.984375 138.472656 214.042969 138.878906 214.855469 139.6875 C 216.476562 141.308594 216.476562 143.945312 214.855469 145.570312 L 174.765625 185.742188 C 173.144531 187.367188 170.519531 187.367188 168.898438 185.742188 C 167.28125 184.121094 167.28125 181.484375 168.898438 179.859375 L 208.988281 139.6875 C 209.800781 138.878906 210.859375 138.472656 211.921875 138.472656 Z M 227.980469 122.375 C 229.042969 122.375 230.101562 122.78125 230.914062 123.59375 L 270.96875 163.734375 C 272.589844 165.359375 272.589844 167.992188 270.96875 169.613281 C 269.347656 171.238281 266.722656 171.238281 265.105469 169.613281 L 225.046875 129.472656 C 223.425781 127.847656 223.425781 125.214844 225.046875 123.59375 C 225.859375 122.78125 226.917969 122.375 227.980469 122.375 " fill-opacity="1" fill-rule="nonzero"/><path fill="#ffffff" d="M 227.980469 154.597656 C 229.042969 154.597656 230.101562 155.003906 230.914062 155.8125 C 232.535156 157.4375 232.535156 160.070312 230.914062 161.695312 L 190.859375 201.835938 C 189.238281 203.457031 186.613281 203.457031 184.992188 201.835938 C 183.375 200.210938 183.375 197.578125 184.992188 195.957031 L 225.046875 155.8125 C 225.859375 155.003906 226.917969 154.597656 227.980469 154.597656 Z M 206.054688 142.625 L 187.925781 124.460938 L 169.800781 142.625 L 187.925781 160.792969 Z M 187.925781 114.421875 C 188.984375 114.421875 190.050781 114.828125 190.859375 115.640625 L 214.855469 139.683594 C 215.632812 140.464844 216.070312 141.519531 216.070312 142.625 C 216.070312 143.730469 215.632812 144.785156 214.855469 145.566406 L 190.859375 169.609375 C 190.082031 170.390625 189.023438 170.828125 187.925781 170.828125 C 186.824219 170.828125 185.769531 170.390625 184.992188 169.609375 L 161 145.566406 C 159.378906 143.941406 159.378906 141.308594 161 139.683594 L 184.992188 115.640625 C 185.804688 114.828125 186.867188 114.421875 187.925781 114.421875 Z M 204 98.308594 C 205.058594 98.308594 206.121094 98.710938 206.933594 99.523438 L 232.914062 125.558594 C 234.535156 127.183594 234.535156 129.816406 232.914062 131.4375 C 231.296875 133.058594 228.667969 133.058594 227.046875 131.4375 L 201.066406 105.40625 C 199.445312 103.777344 199.445312 101.148438 201.066406 99.523438 C 201.875 98.710938 202.9375 98.308594 204 98.308594 Z M 187.925781 82.199219 C 188.984375 82.199219 190.050781 82.601562 190.859375 83.417969 C 192.480469 85.039062 192.480469 87.671875 190.859375 89.296875 L 151.480469 128.757812 C 149.863281 130.378906 147.238281 130.382812 145.617188 128.757812 C 143.992188 127.132812 143.992188 124.5 145.617188 122.875 L 184.992188 83.417969 C 185.804688 82.601562 186.867188 82.199219 187.925781 82.199219 " fill-opacity="1" fill-rule="nonzero"/><g clip-path="url(#5b4df07eae)"><path fill="#ffffff" d="M 165.96875 102.484375 L 147.839844 84.320312 L 129.714844 102.484375 L 147.839844 120.65625 Z M 147.839844 74.285156 C 148.902344 74.285156 149.964844 74.691406 150.773438 75.503906 L 174.769531 99.546875 C 176.386719 101.171875 176.386719 103.800781 174.769531 105.425781 L 153.710938 126.535156 L 163.917969 136.765625 L 201.058594 99.546875 C 202.675781 97.921875 205.300781 97.921875 206.921875 99.546875 C 208.542969 101.171875 208.542969 103.800781 206.921875 105.425781 L 166.871094 145.570312 C 166.660156 145.777344 166.433594 145.957031 166.199219 146.113281 C 164.589844 147.179688 162.398438 147.003906 160.980469 145.582031 L 120.910156 105.425781 C 120.132812 104.644531 119.695312 103.589844 119.695312 102.484375 C 119.695312 101.386719 120.132812 100.328125 120.910156 99.546875 L 144.910156 75.5 C 145.71875 74.691406 146.78125 74.285156 147.839844 74.285156 Z M 147.839844 42.0625 C 148.902344 42.0625 149.964844 42.46875 150.773438 43.277344 L 190.84375 83.433594 C 192.464844 85.058594 192.464844 87.6875 190.84375 89.3125 C 189.222656 90.933594 186.597656 90.933594 184.976562 89.3125 L 147.839844 52.097656 L 97.558594 102.484375 L 150.773438 155.820312 C 152.394531 157.445312 152.394531 160.074219 150.773438 161.699219 C 149.15625 163.320312 146.53125 163.320312 144.910156 161.699219 L 88.757812 105.425781 C 87.976562 104.644531 87.542969 103.589844 87.542969 102.484375 C 87.542969 101.386719 87.976562 100.328125 88.757812 99.546875 L 144.910156 43.277344 C 145.71875 42.46875 146.78125 42.0625 147.839844 42.0625 " fill-opacity="1" fill-rule="nonzero"/></g><path fill="#ffffff" d="M 187.894531 242.828125 C 188.957031 242.828125 190.015625 243.234375 190.828125 244.042969 C 192.449219 245.671875 192.449219 248.304688 190.828125 249.925781 L 174.734375 266.058594 C 173.113281 267.679688 170.488281 267.679688 168.867188 266.058594 C 167.246094 264.433594 167.246094 261.800781 168.867188 260.179688 L 184.960938 244.046875 C 185.769531 243.234375 186.832031 242.828125 187.894531 242.828125 Z M 246.074219 263.117188 L 227.949219 244.949219 L 209.820312 263.117188 L 227.949219 281.285156 Z M 227.949219 234.910156 C 229.046875 234.910156 230.101562 235.351562 230.878906 236.132812 L 254.875 260.179688 C 256.496094 261.800781 256.496094 264.433594 254.875 266.058594 L 230.878906 290.105469 C 229.324219 291.664062 226.570312 291.664062 225.015625 290.105469 L 201.019531 266.058594 C 199.398438 264.433594 199.398438 261.800781 201.019531 260.179688 L 225.015625 236.132812 C 225.792969 235.351562 226.847656 234.910156 227.949219 234.910156 Z M 227.949219 202.6875 C 229.007812 202.6875 230.070312 203.09375 230.878906 203.90625 L 287.027344 260.179688 C 287.808594 260.957031 288.246094 262.015625 288.246094 263.117188 C 288.246094 264.222656 287.808594 265.277344 287.027344 266.058594 L 230.878906 322.328125 C 229.261719 323.949219 226.636719 323.949219 225.015625 322.328125 L 184.941406 282.167969 C 183.320312 280.542969 183.320312 277.914062 184.941406 276.285156 C 186.5625 274.664062 189.1875 274.664062 190.808594 276.285156 L 227.949219 313.507812 L 278.230469 263.117188 L 225.015625 209.785156 C 223.394531 208.160156 223.394531 205.53125 225.015625 203.90625 C 225.824219 203.09375 226.886719 202.6875 227.949219 202.6875 " fill-opacity="1" fill-rule="nonzero"/><path fill="#ffffff" d="M 227.960938 234.894531 C 229.023438 234.894531 230.085938 235.304688 230.894531 236.113281 C 232.515625 237.738281 232.515625 240.371094 230.894531 241.992188 L 190.828125 282.148438 C 189.203125 283.769531 186.582031 283.769531 184.960938 282.148438 C 183.339844 280.523438 183.339844 277.894531 184.960938 276.265625 L 225.03125 236.113281 C 225.839844 235.304688 226.902344 234.894531 227.960938 234.894531 Z M 206.019531 222.941406 L 187.894531 204.773438 L 169.765625 222.941406 L 187.894531 241.105469 Z M 187.894531 194.734375 C 188.957031 194.734375 190.015625 195.140625 190.828125 195.953125 L 214.820312 220 C 216.441406 221.621094 216.441406 224.257812 214.820312 225.878906 L 190.828125 249.925781 C 189.273438 251.488281 186.515625 251.488281 184.960938 249.925781 L 160.964844 225.878906 C 159.347656 224.257812 159.347656 221.621094 160.964844 220 L 184.960938 195.953125 C 185.769531 195.140625 186.832031 194.734375 187.894531 194.734375 " fill-opacity="1" fill-rule="nonzero"/><path fill="#ffffff" d="M 107.664062 194.683594 C 108.726562 194.683594 109.785156 195.089844 110.597656 195.902344 L 150.742188 236.132812 C 152.363281 237.757812 152.363281 240.386719 150.742188 242.011719 C 149.121094 243.632812 146.496094 243.636719 144.875 242.011719 L 104.730469 201.78125 C 103.113281 200.160156 103.113281 197.523438 104.730469 195.902344 C 105.542969 195.089844 106.605469 194.683594 107.664062 194.683594 Z M 165.933594 182.800781 L 147.808594 164.632812 L 129.679688 182.800781 L 147.808594 200.96875 Z M 147.808594 154.597656 C 148.871094 154.597656 149.929688 155.003906 150.742188 155.8125 L 174.734375 179.859375 C 176.359375 181.484375 176.359375 184.117188 174.734375 185.742188 L 150.742188 209.785156 C 149.183594 211.347656 146.429688 211.347656 144.875 209.789062 L 120.878906 185.742188 C 120.101562 184.960938 119.664062 183.902344 119.664062 182.800781 C 119.664062 181.695312 120.101562 180.640625 120.878906 179.859375 L 144.875 155.8125 C 145.683594 155.003906 146.746094 154.597656 147.808594 154.597656 Z M 131.761719 138.453125 C 132.824219 138.453125 133.886719 138.859375 134.695312 139.667969 C 136.316406 141.292969 136.316406 143.925781 134.695312 145.550781 L 94.589844 185.738281 C 92.972656 187.363281 90.34375 187.363281 88.726562 185.738281 C 87.105469 184.117188 87.105469 181.484375 88.726562 179.859375 L 128.828125 139.667969 C 129.640625 138.859375 130.699219 138.453125 131.761719 138.453125 Z M 147.808594 122.371094 C 148.871094 122.371094 149.929688 122.78125 150.742188 123.589844 L 190.828125 163.765625 C 192.449219 165.390625 192.449219 168.019531 190.828125 169.648438 C 189.203125 171.265625 186.582031 171.269531 184.960938 169.644531 L 144.875 129.46875 C 143.253906 127.847656 143.253906 125.214844 144.875 123.589844 C 145.683594 122.78125 146.746094 122.371094 147.808594 122.371094 " fill-opacity="1" fill-rule="nonzero"/><path fill="#ffffff" d="M 165.878906 263.027344 L 147.753906 244.859375 L 129.625 263.027344 L 147.753906 281.191406 Z M 147.753906 234.824219 C 148.851562 234.824219 149.910156 235.257812 150.683594 236.039062 L 174.679688 260.085938 C 176.300781 261.710938 176.300781 264.34375 174.679688 265.964844 L 150.683594 290.011719 C 149.128906 291.574219 146.375 291.574219 144.820312 290.011719 L 120.824219 265.964844 C 119.207031 264.34375 119.207031 261.710938 120.824219 260.085938 L 144.820312 236.039062 C 145.597656 235.257812 146.652344 234.824219 147.753906 234.824219 Z M 131.675781 218.710938 C 132.738281 218.710938 133.796875 219.117188 134.609375 219.929688 C 136.230469 221.554688 136.230469 224.183594 134.609375 225.808594 L 97.472656 263.027344 L 147.753906 313.417969 L 200.96875 260.085938 C 202.585938 258.460938 205.214844 258.460938 206.832031 260.085938 C 208.453125 261.710938 208.453125 264.34375 206.832031 265.964844 L 150.683594 322.238281 C 149.128906 323.796875 146.375 323.796875 144.820312 322.238281 L 88.671875 265.964844 C 87.894531 265.1875 87.453125 264.128906 87.453125 263.027344 C 87.453125 261.921875 87.894531 260.863281 88.671875 260.085938 L 128.742188 219.929688 C 129.550781 219.117188 130.613281 218.710938 131.675781 218.710938 Z M 147.753906 202.601562 C 148.8125 202.601562 149.875 203.003906 150.683594 203.816406 L 190.828125 244.046875 C 192.449219 245.671875 192.449219 248.304688 190.828125 249.925781 C 189.207031 251.546875 186.582031 251.546875 184.960938 249.925781 L 144.820312 209.699219 C 143.199219 208.070312 143.199219 205.441406 144.820312 203.816406 C 145.628906 203.003906 146.691406 202.601562 147.753906 202.601562 " fill-opacity="1" fill-rule="nonzero"/><path fill="#ffffff" d="M 85.738281 182.710938 L 67.613281 164.542969 L 49.484375 182.710938 L 67.613281 200.875 Z M 67.613281 154.507812 C 68.671875 154.507812 69.738281 154.914062 70.546875 155.722656 L 94.542969 179.769531 C 95.320312 180.550781 95.757812 181.605469 95.757812 182.710938 C 95.757812 183.8125 95.320312 184.867188 94.542969 185.648438 L 70.546875 209.695312 C 68.925781 211.320312 66.300781 211.320312 64.679688 209.695312 L 40.683594 185.648438 C 39.066406 184.027344 39.066406 181.394531 40.683594 179.769531 L 64.679688 155.722656 C 65.488281 154.914062 66.550781 154.507812 67.613281 154.507812 Z M 67.613281 122.28125 C 68.671875 122.28125 69.738281 122.6875 70.546875 123.5 L 110.691406 163.730469 C 112.304688 165.355469 112.304688 167.984375 110.691406 169.609375 C 109.066406 171.230469 106.445312 171.230469 104.824219 169.609375 L 67.613281 132.320312 L 17.328125 182.710938 L 67.613281 233.097656 L 124.050781 176.539062 C 125.675781 174.917969 128.296875 174.914062 129.917969 176.539062 C 131.539062 178.164062 131.539062 180.796875 129.917969 182.417969 L 70.546875 241.921875 C 69.765625 242.695312 68.714844 243.136719 67.613281 243.136719 C 66.511719 243.136719 65.457031 242.695312 64.679688 241.921875 L 8.535156 185.648438 C 6.910156 184.027344 6.910156 181.394531 8.535156 179.769531 L 64.679688 123.5 C 65.488281 122.6875 66.550781 122.28125 67.613281 122.28125 " fill-opacity="1" fill-rule="nonzero"/></svg>